<svg width="180" height="180" viewBox="0 0 180 180" xmlns="http://www.w3.org/2000/svg"><title>past_speakers-logo_nu_bank</title><path d="M85.266 112.193a.977.977 0 0 1-.977.975h-9.334a.977.977 0 0 1-.977-.975v-37.68c0-5.728-4.659-10.388-10.385-10.388h-8.48l.002-4.154c0-5.464 5.892-6.053 8.425-6.053 9.066 0 21.71 6.766 21.71 17.786l.005 6.294c.005 6.61.014 17.335.011 34.195zm-32.069.009a.978.978 0 0 1-.976.966h-9.327a.977.977 0 0 1-.976-.975V73.79c0-3.548 4.179-7.75 7.71-7.75h3.569c-.002 17.576-.005 45.903 0 46.161zm33.971-40.498C87.168 59.497 73.406 52 63.54 52c-6.379 0-10.343 3.054-10.343 7.993v4.131h-3.569c-4.59 0-9.628 5.06-9.628 9.666v38.402a2.897 2.897 0 0 0 2.894 2.893h9.327a2.905 2.905 0 0 0 2.893-2.89v-.096a2.231 2.231 0 0 0 .001-.256v-.092h-.002c-.005-4.062 0-34.526 0-45.71h8.48c4.669 0 8.468 3.8 8.468 8.47v37.68a2.897 2.897 0 0 0 2.894 2.894h9.334a2.896 2.896 0 0 0 2.894-2.893c.003-16.861-.006-27.588-.012-34.195l-.003-6.294zm50.914 33.646c0 3.55-4.179 7.75-7.71 7.75h-3.57c.002-17.575.005-45.903 0-46.16a.98.98 0 0 1 .977-.968h9.327c.539 0 .976.438.976.977v38.4zm-13.197 13.82c0 5.464-5.892 6.054-8.425 6.054-9.066 0-21.712-6.766-21.712-17.787l-.003-6.294c-.006-6.608-.014-17.334-.011-34.194 0-.539.437-.977.976-.977h9.335c.538 0 .976.438.976.977v37.68c0 5.728 4.66 10.387 10.386 10.387h8.48l-.002 4.154zm12.22-55.115h-9.326c-1.581 0-2.88 1.286-2.894 2.891v.096a2.171 2.171 0 0 0 0 .255l-.001.093h.002c.006 4.06.001 34.526 0 45.71h-8.479c-4.67 0-8.468-3.801-8.468-8.47V66.948a2.897 2.897 0 0 0-2.894-2.894H95.71a2.897 2.897 0 0 0-2.893 2.894c-.003 16.86.006 27.586.011 34.194l.003 6.294c0 12.208 13.762 19.704 23.629 19.704 6.38 0 10.342-3.055 10.342-7.993v-4.132h3.57c4.588 0 9.627-5.06 9.627-9.666V66.949a2.897 2.897 0 0 0-2.893-2.894z" fill="#FFF" fill-rule="evenodd"/></svg>